<svg width="30" height="26" viewBox="0 0 30 26" fill="none" xmlns="http://www.w3.org/2000/svg">
<path d="M15 -0.0065918C17.9667 -0.0065918 20.8668 0.755465 23.3336 2.18321C25.8003 3.61096 27.7229 5.64027 28.8582 8.01453C29.9935 10.3888 30.2906 13.0013 29.7118 15.5218C29.133 18.0423 27.7044 20.3576 25.6066 22.1747C23.5088 23.9919 20.8361 25.2294 17.9264 25.7308C15.0166 26.2322 12.0006 25.9748 9.25975 24.9914C6.51886 24.0079 4.17618 22.3425 2.52796 20.2058C0.879735 18.069 0 15.5568 0 12.9869C0 9.54084 1.58035 6.23588 4.3934 3.79912C7.20644 1.36237 11.0218 -0.0065918 15 -0.0065918Z" fill="white"/>
<path d="M15.091 12.1256C15.5523 12.1307 16.0098 12.0536 16.4352 11.899C16.8606 11.7445 17.2448 11.5159 17.564 11.2273C18.2205 10.6489 18.5884 9.87029 18.5884 9.05915C18.5884 8.24801 18.2205 7.46935 17.564 6.89097C17.2411 6.60643 16.8561 6.38042 16.4313 6.22615C16.0065 6.07188 15.5506 5.99243 15.09 5.99243C14.6294 5.99243 14.1734 6.07188 13.7487 6.22615C13.3239 6.38042 12.9389 6.60643 12.616 6.89097C11.9595 7.46935 11.5916 8.24801 11.5916 9.05915C11.5916 9.87029 11.9595 10.6489 12.616 11.2273C12.9354 11.516 13.32 11.7447 13.7458 11.8992C14.1715 12.0537 14.6294 12.1308 15.091 12.1256ZM13.219 7.41849C13.4633 7.20333 13.7546 7.03246 14.0759 6.91582C14.3972 6.79918 14.7421 6.7391 15.0905 6.7391C15.4389 6.7391 15.7838 6.79918 16.1051 6.91582C16.4264 7.03246 16.7177 7.20333 16.962 7.41849C17.4588 7.85595 17.7372 8.44506 17.7372 9.05873C17.7372 9.67239 17.4588 10.2615 16.962 10.6989C16.7178 10.9143 16.4266 11.0854 16.1053 11.2022C15.7839 11.3189 15.439 11.3791 15.0905 11.3791C14.742 11.3791 14.3971 11.3189 14.0757 11.2022C13.7544 11.0854 13.4631 10.9143 13.219 10.6989C12.7222 10.2615 12.4437 9.67239 12.4437 9.05873C12.4437 8.44506 12.7222 7.85595 13.219 7.41849Z" fill="#071C1F"/>
<path d="M21.213 15.7821C21.19 15.5126 21.1506 15.2442 21.095 14.9782C21.0401 14.7046 20.9646 14.4343 20.869 14.1692C20.7729 13.9071 20.6459 13.6543 20.49 13.4147C20.3371 13.174 20.1444 12.954 19.918 12.7616C19.6808 12.5657 19.4015 12.4121 19.096 12.3094C18.762 12.1959 18.4058 12.1392 18.047 12.1422C17.8376 12.162 17.6398 12.2356 17.479 12.3536C17.308 12.4514 17.109 12.564 16.886 12.6888C16.6458 12.8143 16.3885 12.9135 16.12 12.9842C15.5117 13.161 14.8534 13.161 14.245 12.9842C13.9765 12.9138 13.7191 12.8146 13.479 12.6888C13.258 12.5649 13.059 12.4532 12.886 12.3536C12.7249 12.2355 12.5268 12.1619 12.317 12.1422C11.9582 12.1392 11.6021 12.1959 11.268 12.3094C10.9627 12.4124 10.6835 12.566 10.446 12.7616C10.22 12.954 10.0276 13.1741 9.87504 13.4147C9.71917 13.6543 9.59217 13.9071 9.49604 14.1692C9.40052 14.4343 9.32502 14.7046 9.27004 14.9782C9.21396 15.2444 9.17457 15.5131 9.15204 15.783C9.13304 16.0255 9.12304 16.2793 9.12304 16.5349C9.10787 16.8299 9.16379 17.1245 9.28723 17.3998C9.41067 17.6751 9.59894 17.9251 9.84004 18.1339C10.0875 18.3327 10.3779 18.4872 10.6946 18.5884C11.0112 18.6897 11.3478 18.7357 11.685 18.7239H18.679C19.0164 18.7357 19.3532 18.6896 19.67 18.5884C19.9868 18.4872 20.2773 18.3327 20.525 18.1339C20.7661 17.9251 20.9542 17.6751 21.0775 17.3998C21.2008 17.1244 21.2565 16.8299 21.241 16.5349C21.242 16.2776 21.232 16.0247 21.213 15.7821ZM19.939 17.5934C19.7692 17.7267 19.5704 17.8294 19.3542 17.8954C19.138 17.9615 18.9089 17.9895 18.68 17.978H11.685C11.4564 17.9896 11.2273 17.9616 11.0113 17.8955C10.7953 17.8295 10.5967 17.7268 10.427 17.5934C10.2702 17.4543 10.1489 17.2882 10.071 17.1058C9.99314 16.9234 9.96044 16.7289 9.97504 16.5349C9.97504 16.2958 9.98404 16.0602 10.002 15.835C10.0226 15.5918 10.058 15.3498 10.108 15.1099C10.1568 14.8688 10.2237 14.6307 10.308 14.397C10.3867 14.184 10.4903 13.9785 10.617 13.7837C10.7294 13.6062 10.8709 13.4436 11.037 13.3012C11.1953 13.172 11.3811 13.0708 11.584 13.0032C11.7981 12.9312 12.0254 12.8928 12.255 12.8898C12.285 12.9036 12.338 12.9305 12.423 12.9764C12.599 13.076 12.8 13.1904 13.023 13.3151C13.324 13.4754 13.6473 13.602 13.985 13.6919C14.7638 13.9175 15.6062 13.9175 16.385 13.6919C16.7228 13.602 17.0461 13.4754 17.347 13.3151C17.575 13.1869 17.771 13.076 17.947 12.9764C18.033 12.9279 18.086 12.901 18.116 12.8898C18.3457 12.8928 18.5729 12.9312 18.787 13.0032C18.9898 13.0707 19.1753 13.1719 19.333 13.3012C19.5 13.4436 19.6418 13.6065 19.754 13.7846C19.881 13.979 19.9845 14.1842 20.063 14.397C20.1474 14.6307 20.2142 14.8688 20.263 15.1099C20.313 15.3498 20.3484 15.5918 20.369 15.835C20.387 16.0602 20.396 16.2958 20.396 16.5349C20.41 16.7292 20.3765 16.9239 20.2977 17.1063C20.219 17.2887 20.0968 17.4547 19.939 17.5934Z" fill="#071C1F"/>
</svg>
