<svg width="60" height="45" viewBox="0 0 60 45" fill="none" xmlns="http://www.w3.org/2000/svg">
<g filter="url(#filter0_d_1_7499)">
<path d="M30 0.127197C32.9667 0.127197 35.8668 0.889254 38.3336 2.317C40.8003 3.74475 42.7229 5.77406 43.8582 8.14832C44.9935 10.5226 45.2906 13.1351 44.7118 15.6556C44.133 18.1761 42.7044 20.4914 40.6066 22.3085C38.5088 24.1257 35.8361 25.3632 32.9264 25.8646C30.0166 26.3659 27.0006 26.1086 24.2597 25.1252C21.5189 24.1417 19.1762 22.4763 17.528 20.3395C15.8797 18.2028 15 15.6906 15 13.1207C15 9.67463 16.5804 6.36967 19.3934 3.93291C22.2064 1.49615 26.0218 0.127197 30 0.127197Z" fill="white"/>
</g>
<path d="M26.0319 15.709H33.8459C33.9414 15.7077 34.0337 15.6791 34.1086 15.6277C34.1834 15.5764 34.2366 15.5051 34.2599 15.4249L35.9829 9.95373C36.0021 9.89508 36.0056 9.83343 35.9933 9.77342C35.981 9.71341 35.9532 9.65658 35.9119 9.60722C35.873 9.55954 35.8214 9.52059 35.7616 9.49363C35.7018 9.46666 35.6354 9.45246 35.5679 9.45217H25.0389L24.7309 8.19787C24.7121 8.11273 24.6599 8.03582 24.5832 7.98012C24.5065 7.92442 24.41 7.89333 24.3099 7.89209H21.7249C21.6108 7.89869 21.5038 7.94261 21.4256 8.01499C21.3474 8.08737 21.304 8.18277 21.304 8.28188C21.304 8.38099 21.3474 8.47639 21.4256 8.54877C21.5038 8.62115 21.6108 8.6651 21.7249 8.6717H23.9649C24.0189 8.89432 25.4389 14.6886 25.5199 15.0212C25.285 15.1173 25.0868 15.2697 24.9488 15.4604C24.8107 15.6511 24.7386 15.872 24.7409 16.0971C24.7334 16.401 24.8653 16.6951 25.1077 16.9149C25.35 17.1348 25.6831 17.2624 26.0339 17.2699H33.8459C33.958 17.2608 34.062 17.2157 34.1378 17.1437C34.2135 17.0716 34.2555 16.9776 34.2555 16.8801C34.2555 16.7827 34.2135 16.6887 34.1378 16.6166C34.062 16.5445 33.958 16.4995 33.8459 16.4903H26.0339C25.9198 16.4837 25.8128 16.4398 25.7346 16.3674C25.6564 16.295 25.613 16.1996 25.613 16.1005C25.613 16.0014 25.6564 15.906 25.7346 15.8336C25.8128 15.7612 25.9198 15.7173 26.0339 15.7107L26.0319 15.709ZM34.9979 10.237L33.5209 14.9268H26.3789L25.2299 10.237H34.9979Z" fill="#071C1F"/>
<path d="M25.6028 18.442C25.6144 18.6613 25.7 18.8728 25.8491 19.0503C25.9982 19.2278 26.2041 19.3635 26.4414 19.4406C26.6787 19.5176 26.9369 19.5326 27.1839 19.4836C27.4309 19.4347 27.6559 19.3241 27.831 19.1654C28.0061 19.0067 28.1235 18.807 28.1687 18.591C28.2139 18.375 28.185 18.1523 28.0854 17.9504C27.9858 17.7486 27.82 17.5765 27.6085 17.4555C27.397 17.3346 27.1492 17.2701 26.8958 17.27C26.5451 17.2773 26.212 17.4048 25.9696 17.6245C25.7272 17.8442 25.5953 18.1382 25.6028 18.442ZM26.8958 18.0514C26.9861 18.0477 27.0755 18.0676 27.1525 18.1084C27.2296 18.1492 27.2908 18.209 27.3282 18.2802C27.3656 18.3514 27.3776 18.4307 27.3625 18.5079C27.3474 18.585 27.306 18.6564 27.2436 18.713C27.1812 18.7696 27.1007 18.8086 27.0124 18.8252C26.9242 18.8417 26.8322 18.835 26.7484 18.8058C26.6646 18.7767 26.5928 18.7264 26.5422 18.6616C26.4917 18.5967 26.4647 18.5203 26.4648 18.442C26.4632 18.3412 26.5076 18.2439 26.5883 18.1713C26.669 18.0986 26.7795 18.0565 26.8958 18.054V18.0514Z" fill="#071C1F"/>
<path d="M31.692 18.442C31.7035 18.6613 31.7891 18.8728 31.9382 19.0503C32.0873 19.2278 32.2932 19.3635 32.5305 19.4406C32.7678 19.5176 33.026 19.5326 33.273 19.4836C33.52 19.4347 33.745 19.3241 33.9201 19.1654C34.0952 19.0067 34.2126 18.807 34.2578 18.591C34.3031 18.375 34.2741 18.1523 34.1745 17.9504C34.0749 17.7486 33.9091 17.5765 33.6976 17.4555C33.4862 17.3346 33.2384 17.2701 32.985 17.27C32.6342 17.2773 32.3011 17.4048 32.0587 17.6245C31.8163 17.8442 31.6844 18.1382 31.692 18.442ZM32.985 18.0514C33.0752 18.0477 33.1646 18.0676 33.2416 18.1084C33.3187 18.1492 33.3799 18.209 33.4173 18.2802C33.4547 18.3514 33.4667 18.4307 33.4516 18.5079C33.4365 18.585 33.3951 18.6564 33.3327 18.713C33.2703 18.7696 33.1898 18.8086 33.1015 18.8252C33.0133 18.8417 32.9213 18.835 32.8375 18.8058C32.7537 18.7767 32.6819 18.7264 32.6313 18.6616C32.5808 18.5967 32.5539 18.5203 32.554 18.442C32.5523 18.3412 32.5967 18.2439 32.6774 18.1713C32.7581 18.0986 32.8686 18.0565 32.985 18.054V18.0514Z" fill="#071C1F"/>
<defs>
<filter id="filter0_d_1_7499" x="0" y="-11.8728" width="60" height="55.9871" filterUnits="userSpaceOnUse" color-interpolation-filters="sRGB">
<feFlood flood-opacity="0" result="BackgroundImageFix"/>
<feColorMatrix in="SourceAlpha" type="matrix" values="0 0 0 0 0 0 0 0 0 0 0 0 0 0 0 0 0 0 127 0" result="hardAlpha"/>
<feOffset dy="3"/>
<feGaussianBlur stdDeviation="7.5"/>
<feColorMatrix type="matrix" values="0 0 0 0 0.168627 0 0 0 0 0.184314 0 0 0 0 0.278431 0 0 0 0.078 0"/>
<feBlend mode="normal" in2="BackgroundImageFix" result="effect1_dropShadow_1_7499"/>
<feBlend mode="normal" in="SourceGraphic" in2="effect1_dropShadow_1_7499" result="shape"/>
</filter>
</defs>
</svg>
