<svg width="30" height="26" viewBox="0 0 30 26" fill="none" xmlns="http://www.w3.org/2000/svg">
<path d="M15 -0.0065918C17.9667 -0.0065918 20.8668 0.755465 23.3336 2.18321C25.8003 3.61096 27.7229 5.64027 28.8582 8.01453C29.9935 10.3888 30.2906 13.0013 29.7118 15.5218C29.133 18.0423 27.7044 20.3576 25.6066 22.1747C23.5088 23.9919 20.8361 25.2294 17.9264 25.7308C15.0166 26.2322 12.0006 25.9748 9.25975 24.9914C6.51886 24.0079 4.17618 22.3425 2.52796 20.2058C0.879735 18.069 0 15.5568 0 12.9869C0 9.54084 1.58035 6.23588 4.3934 3.79912C7.20644 1.36237 11.0218 -0.0065918 15 -0.0065918Z" fill="white"/>
<path d="M21.1069 8.57764C20.7446 8.23144 20.3027 7.95478 19.8095 7.76544C19.3163 7.5761 18.7829 7.47827 18.2434 7.47827C17.704 7.47827 17.1705 7.5761 16.6774 7.76544C16.1842 7.95478 15.7422 8.23144 15.3799 8.57764L15.1279 8.81239L14.8759 8.57764C14.5298 8.24708 14.111 7.97977 13.6439 7.79143C13.1769 7.60308 12.6711 7.49749 12.1563 7.48086C11.6415 7.46424 11.128 7.53692 10.6461 7.69462C10.1642 7.85232 9.72347 8.09186 9.34993 8.39918C9.27993 8.45692 9.21326 8.51643 9.14993 8.57764C8.39734 9.29637 7.98047 10.232 7.98047 11.2023C7.98047 12.1727 8.39734 13.1083 9.14993 13.827L14.7599 19.0357C14.8056 19.0785 14.8607 19.1129 14.922 19.137C14.9832 19.1611 15.0495 19.1743 15.1167 19.176C15.184 19.1776 15.2509 19.1675 15.3137 19.1464C15.3764 19.1253 15.4336 19.0935 15.4819 19.053L15.5019 19.0357L21.1099 13.827C21.8621 13.108 22.2784 12.1722 22.2779 11.2018C22.2773 10.2315 21.8599 9.29605 21.1069 8.57764ZM20.3679 13.2068L15.1289 18.0716L9.88893 13.2068C9.31398 12.6576 8.99552 11.9428 8.99552 11.2015C8.99552 10.4601 9.31398 9.74527 9.88893 9.19612C10.1436 8.95109 10.4522 8.75262 10.7967 8.61238C11.1411 8.47213 11.5145 8.39293 11.8948 8.37945C12.2751 8.36598 12.6546 8.41849 13.0112 8.53389C13.3677 8.64929 13.694 8.82527 13.9709 9.05147C14.0276 9.09767 14.0823 9.14588 14.1349 9.19612L14.7579 9.77477C14.8063 9.81746 14.8641 9.85136 14.9278 9.87451C14.9915 9.89766 15.0599 9.90959 15.1289 9.90959C15.198 9.90959 15.2664 9.89766 15.3301 9.87451C15.3938 9.85136 15.4515 9.81746 15.4999 9.77477L16.1229 9.197C16.3776 8.95196 16.6862 8.75349 17.0307 8.61325C17.3751 8.47301 17.7485 8.3938 18.1288 8.38033C18.5091 8.36685 18.8886 8.41936 19.2452 8.53476C19.6017 8.65016 19.928 8.82612 20.2049 9.05231C20.2616 9.09851 20.3163 9.14675 20.3689 9.197C20.9501 9.74338 21.2726 10.4593 21.2723 11.2022C21.2719 11.9452 20.9497 12.6608 20.3679 13.2068Z" fill="#071C1F"/>
</svg>
